<?xml version="1.0" encoding="UTF-8"?> <svg xmlns="http://www.w3.org/2000/svg" viewBox="0 0 104.07 104.07"><defs><style>.cls-2{fill:#fff}</style></defs><g id="Layer_2" data-name="Layer 2"><g id="Art"><circle cx="52.04" cy="52.04" r="52.04" fill="#201d1d"></circle><path class="cls-2" d="M62.55 47.61c-1.67 1-2.95.49-3.36-.57a10.23 10.23 0 01-.65-2.78 23.92 23.92 0 01.9-8c1-3.79 2.26-7.51 3.39-11.27A2.11 2.11 0 0164 23.64c5.42-2.93 10.95-5.68 16-9.23.5-.35 1.13-.69.76-1.61a56.39 56.39 0 00-8.34 3.74C69.69 18 67 19.46 64 21.06c.16-.66.22-1 .32-1.32.41-1.42.84-2.84 1.25-4.26.67-2.35.21-2.83-2.18-2.37-.43 1.43-.82 2.85-1.27 4.24s-1 3.06-1.53 4.57a2.21 2.21 0 01-1.19 1.48c-2.12.92-4.19 2-6.36 2.76-1.19.42-2.41.73-3.63 1l-.88.22a3.31 3.31 0 00-.45.12 1.33 1.33 0 01-.28.1 9.69 9.69 0 01-1.51.24 4.09 4.09 0 01-1 0c-.56-.09-1.16-.3-1.64 0a1.84 1.84 0 001.21 1 8 8 0 002.79.48 21.43 21.43 0 002.88-.19 5.25 5.25 0 00.69-.13l.72-.19c.47-.13 1-.27 1.42-.42.94-.3 1.88-.63 2.79-1 .61-.24 1.21-.5 1.8-.77a3.69 3.69 0 01.71-.17c-.42 1.09-.73 2.14-1.21 3.1-1.16 2.36-2.35 4.71-3.61 7-1.1 2-2.28 4-3.47 5.93-.59 1-1.2 1.9-1.84 2.83.35 1.13.68 2.26.92 3.41a63.89 63.89 0 005.1-8.18c.61-1.12 1.25-2.22 1.87-3.33l.24.1c-.1.86-.19 1.73-.32 2.59a16.72 16.72 0 00.08 5.86A5.08 5.08 0 0063 49.51c-.14-.51-.38-1.33-.45-1.9z"></path><path class="cls-2" d="M86.47 35.67c-1.24 1.22-2.42 2.48-3.71 3.65a26.31 26.31 0 01-3.11 2.41 24.09 24.09 0 01-3.46 2 8.5 8.5 0 01-2.54.6 3.08 3.08 0 01-3.29-1.55L72 40.57a29.69 29.69 0 005-9.5 23.44 23.44 0 00.47-3.07c.08-.53-.29-.91-.76-1.19a4 4 0 00-4.5.58 10.19 10.19 0 00-.91 1.4c-.67 1-1.42 2-2 3a11.91 11.91 0 00-.87 2.13 14.46 14.46 0 00-.85 2.84 13.18 13.18 0 000 4.89 1.23 1.23 0 01-.32 1.21c-.5.58-1 1.19-1.5 1.75a20.58 20.58 0 01-3.64 3.31 9.56 9.56 0 00.34 1.74 4.61 4.61 0 00.91-.3 12.84 12.84 0 003.83-3c.68-.67 1.13-1.53 2-2h.21l.44.23a8.37 8.37 0 006.41 1 13.68 13.68 0 006.48-3.49C84 41 85 39.78 86.13 38.6a6.35 6.35 0 001.55-3.81 5.31 5.31 0 00-1.21.88zm-11.28-7.51A12 12 0 0174.3 32a44.25 44.25 0 01-4.41 7.6c-.89-2.52 2.85-11.04 5.3-11.44zM75 62.31a15.48 15.48 0 01-1 1.5c-2.2 2.89-5.89 10-7.7 13.16C64 81 61.54 85 58 88.13a16.1 16.1 0 01-3.2 2.23 2.74 2.74 0 01-3.8-1.18 8.3 8.3 0 01-.8-1.64 15.92 15.92 0 01-.72-7.49 54 54 0 011.48-6.88c.41-1.56 1.11-3 1.63-4.55A31.08 31.08 0 0158 58.74a11.06 11.06 0 013.41-3c1-.51 1.72 0 1.78.91a21.49 21.49 0 01.1 3A13.36 13.36 0 0161.93 65l.87 1 .18.19a1.12 1.12 0 001.91-.38 23.18 23.18 0 00.94-2.81 14.8 14.8 0 00.17-6.46 3.87 3.87 0 00-4.8-3 12.13 12.13 0 00-3.64 1.65 5.41 5.41 0 00-1.33 1.05 31.05 31.05 0 00-5.12 8.3c-1.1 2.56-2 5.21-2.91 7.85a27 27 0 00-1.49 12.09c.26 2.18.72 4.31 2.5 5.89a6.39 6.39 0 005.84 1.87A11.7 11.7 0 0060.84 89a31.46 31.46 0 005.32-6.58c2-3.49 7.2-12.9 9.24-16.39.36-1.88-.57-1.84-.4-3.72zM16.25 40.55a10.77 10.77 0 00-.42 1 78.24 78.24 0 00-2.68 18.19 23.55 23.55 0 01-1.09 5.15c-.1.4-.57.71-.89 1.08a1.25 1.25 0 01-1-1.35q-.1-3.8-.17-7.62a51.7 51.7 0 011.25-11.08 86.25 86.25 0 014.5-15.11c.6-1.51 1.08-3.07 1.74-4.56.53-1.18 1.25-2.27 1.88-3.39a11.33 11.33 0 012.12 0c1 .2 1.17.83.71 1.68a44.35 44.35 0 00-3.65 8.61c-.3 1-.73 2-1 3 3.15-1.36 5.49-3.67 8-5.78a41.78 41.78 0 006.51-7.24A33.79 33.79 0 0037 14.56a16 16 0 011.91 1c.7.51.72 1.09.32 2a39.35 39.35 0 01-5.78 8.93 55.65 55.65 0 01-12.45 11c-.9.6-1.87 1.1-2.72 1.6 1.21 1.95 2.42 3.83 3.56 5.75S24.09 49 25.36 51a30.85 30.85 0 0010.07 10.2 13.39 13.39 0 003.46 1.32 3.72 3.72 0 003.11-.91c.33-.23.63-.5 1-.77a1.87 1.87 0 01-1 2.81 5.79 5.79 0 01-3.11.35 14.87 14.87 0 01-5.24-1.82 33.79 33.79 0 01-13.16-14q-1.74-3.33-3.49-6.61a8.6 8.6 0 00-.75-1.02zm18.62 35.71c1.28-.57 2.3-1.06 3.34-1.49s2.27-.86 3.41-1.27a2.52 2.52 0 01.76-.16c.69 0 1 .43.64 1a3.28 3.28 0 01-1.09 1.07c-1.33.75-2.7 1.42-4 2.11a6.8 6.8 0 01-1 .44 3.09 3.09 0 00-2.4 3.57 40.78 40.78 0 01-.41 6.12 14.07 14.07 0 01-.37 2 1 1 0 01-1.46.83A13.46 13.46 0 0131 90l.37-9.06c-.85.39-1.54.73-2.25 1-1.28.54-2.57 1.05-3.85 1.59-.94.39-1.67 0-2.54-.68 1.18-.68 2.23-1.32 3.31-1.91 1.53-.83 3.07-1.62 4.61-2.45a1.37 1.37 0 00.83-1.22c.07-1.21.18-2.43.31-3.64.09-.82.28-1.63.34-2.45a.72.72 0 01.7-.76c.26 0 .52-.08.78-.1 1.3-.09 1.68.26 1.62 1.54 0 .78-.16 1.56-.23 2.34-.07.62-.09 1.23-.13 2.06z"></path><path class="cls-2" d="M54 36.16c-.94 1.64-1.91 3.28-2.9 4.9a61.49 61.49 0 01-5.33 7.51 14.7 14.7 0 01-1.71 1.73c-.68.57-1.2.41-1.55-.42a6.37 6.37 0 01-.51-1.77A32.1 32.1 0 0142 39a9.07 9.07 0 00.12-1.57c0-1-.21-1.32-1.13-1.53a5.46 5.46 0 00-5.38 1.43 17.22 17.22 0 00-2.2 3 17.43 17.43 0 00-2.9 8.13c-.19 1.82 0 3.6 1.83 4.8 1.25.84 2.6.88 3.52-.34a19.21 19.21 0 001.73-2.94c.41-.8.68-1.67 1-2.51h.3a6.51 6.51 0 01.29.92 5.22 5.22 0 001.85 3 4 4 0 005.57.23 26.41 26.41 0 003.51-3.74c1.91-2.53 5.41-8.74 7-11.51-.4-1.27-2.69 1-3.11-.21zm-21.44 15c-.62-3.46 3.28-11.47 6.68-13.7 2.43-.41-5.55 17.18-6.66 13.68zm60.29 1.93a.16.16 0 00-.07-.07c-.14-.08-.32 0-.44.14-1 .8-2 1.55-3 2.25a35.57 35.57 0 01-3.19 1.93c-.54.3-1.1.58-1.66.85s-1.36.61-2 1a.21.21 0 01-.11 0 .44.44 0 01-.16 0 21.78 21.78 0 00-2.29-.74 7.28 7.28 0 00-3.15 0 7.76 7.76 0 00-2.82 1.28c-1.29.91-1.3 2.13 0 3.08a6.18 6.18 0 00.53.36c.13.08.44.2.5.33a1.49 1.49 0 00-.3.18 1.37 1.37 0 00-.23.43c-.16.33-.31.66-.45 1a19.42 19.42 0 00-.68 2.08 28 28 0 00-.75 4.36 20.76 20.76 0 00-.05 2.09v2a2.27 2.27 0 000 .45c0 .14.11.25.14.39.07.34.12.68.19 1 .12.52.24 1 .39 1.56a3.91 3.91 0 002 2.42 4.56 4.56 0 005.56-1.48 24.14 24.14 0 002.17-3.71c1.61-3.41 2.7-6.95 2.19-10.78-.07-.52-.17-1-.29-1.54s-.23-1-.35-1.43l-.18-.74a1.24 1.24 0 00-.1-.31s-.12-.29-.07-.31l1.82-1c.78-.42 1.56-.85 2.31-1.32a22.11 22.11 0 002.09-1.54 10 10 0 001.92-1.93 3 3 0 00.61-2 .49.49 0 00-.08-.28zm-13.54 7.78c-1 .53-2 1.26-3.2.5.89-1.37 1.89-1.53 3.2-.5zm0 15a11.57 11.57 0 01-2.61 4c-1.89-5.67-.65-10.86.81-16.07l3.33-.8a10.36 10.36 0 01.89 4.49c.08 3.01-1.17 5.67-2.38 8.34z"></path></g></g></svg> 