<svg xmlns="http://www.w3.org/2000/svg" viewBox="0 0 146.87 30.43"><g id="Layer_2" data-name="Layer 2"><g id="Art"><path d="M52.12 4.29c0 .29.08.62.13 1s.09.71.13 1 .06.51.06.56H52l-.36-.7a4.35 4.35 0 00-1.48-1.56A3.5 3.5 0 0048.27 4h-3.94v16.59a2.2 2.2 0 00.32 1.25 1 1 0 00.87.47h.22v.45h-4.32v-.45a1.36 1.36 0 001.06-.41 1.9 1.9 0 00.37-1.31V4h-3.93a3.51 3.51 0 00-1.92.62 4.24 4.24 0 00-1.47 1.56l-.36.7h-.46c0-.07 0-.26.06-.58s.09-.66.14-1 .09-.7.13-1a1.48 1.48 0 01.08-.44v-.17H52v.17a1.26 1.26 0 01.12.43zM113.86 29a17 17 0 01-6-1 13.25 13.25 0 01-4.65-2.93 13 13 0 01-3-4.54 15.62 15.62 0 01-1.07-5.9 15.52 15.52 0 011.07-5.86 12.87 12.87 0 017.64-7.46 16.79 16.79 0 016-1 28.47 28.47 0 013.15.13 26.73 26.73 0 013.1.51 21.43 21.43 0 012.8.82 15.05 15.05 0 012.34 1l.18 4h-.71c-.09-.17-.19-.36-.28-.57s-.18-.4-.25-.57a8 8 0 00-2.54-3A8.24 8.24 0 00118 1.11a2.22 2.22 0 00-.6-.11c-.4 0-.86-.08-1.37-.1l-1.39-.07h-.78a12.57 12.57 0 00-5 1 11.26 11.26 0 00-3.92 2.8 12.72 12.72 0 00-2.51 4.36 17 17 0 00-.89 5.67 17 17 0 00.89 5.67 12.72 12.72 0 002.51 4.38 11.06 11.06 0 003.92 2.82 12.57 12.57 0 005 1h1.4c.46 0 .93-.06 1.4-.11a10.69 10.69 0 004.61-1.58 7.59 7.59 0 002.94-3.17l.25-.57a5.83 5.83 0 01.28-.56h.71l-.18 4a16 16 0 01-2.34 1.05 21.44 21.44 0 01-2.8.81 26.71 26.71 0 01-3.1.52 31.05 31.05 0 01-3.17.08zm11.41-26.15a.43.43 0 01-.07.1.18.18 0 000 .11zm21.6 10.52a11.59 11.59 0 01-.62 3.79 9.16 9.16 0 01-1.83 3.15 8.7 8.7 0 01-3 2.14 11.59 11.59 0 01-8.41 0 8.66 8.66 0 01-3-2.14 9 9 0 01-1.84-3.15 11.86 11.86 0 010-7.57A9 9 0 01130 6.46a8.66 8.66 0 013-2.14 11.59 11.59 0 018.41 0 8.7 8.7 0 013 2.14 9.16 9.16 0 011.83 3.13 11.53 11.53 0 01.63 3.78zm-9.67 9.5a7.5 7.5 0 003.48-.76 7.33 7.33 0 002.51-2.11 9 9 0 001.52-3 12.83 12.83 0 00.51-3.65 12.64 12.64 0 00-.51-3.63 9.08 9.08 0 00-1.52-3 7.33 7.33 0 00-2.51-2.07 7.5 7.5 0 00-3.48-.76 7.61 7.61 0 00-3.5.76 7.4 7.4 0 00-2.53 2.07 8.92 8.92 0 00-1.53 3 12.64 12.64 0 00-.51 3.63 12.83 12.83 0 00.51 3.65 8.87 8.87 0 001.53 3 7.4 7.4 0 002.53 2.07 7.61 7.61 0 003.5.8zM2.79 15.86l.78.1L17.92 3.34C20 1.58 21.8.7 23.25.7V0h-4.44v.7a1 1 0 01.39.05c.06 0 .09.08.09.13q0 .48-1.41 1.8z"/><path d="M3.67 26a3.14 3.14 0 00.56 2 1.8 1.8 0 001.51.71h.42v.67H0v-.67a2.44 2.44 0 001.83-.64 2.88 2.88 0 00.62-2V3.34a3.08 3.08 0 00-.56-1.93A1.84 1.84 0 00.37.7H0V0h6.16v.7a2.58 2.58 0 00-1.85.62 2.72 2.72 0 00-.64 2V26zm29.27 1.2a7.79 7.79 0 01-1.72 1.43c-.32.19-.64.36-1 .52a7.35 7.35 0 01-1 .38 9.13 9.13 0 01-4.25.23 10.82 10.82 0 01-2.08-.55c-.35-.11-.68-.27-1-.4s-.67-.31-1-.48a15 15 0 01-3.47-2.72 28.18 28.18 0 01-2.86-3.54c-.88-1.26-1.71-2.56-2.53-3.88-1.34-2.19-2.6-4.42-3.83-6.71l-.33.25c.34 1 .73 1.91 1.13 2.85.32.73.67 1.45 1 2.16s.73 1.41 1.11 2.11a32.5 32.5 0 005.72 7.47 15.28 15.28 0 003.74 2.73c.35.18.7.31 1 .46s.71.27 1.07.37a12.69 12.69 0 002.2.48 9.63 9.63 0 004.42-.47A8.43 8.43 0 0033 27.27zM84.57 3.6h1.19v19.08h-1.19zm-8.94 9.26h19.08"/><path d="M75.63 12.66h19.08v.4H75.63zm-4.89 9.13c-.11.54-.18.84-.19.91h-14v-.46a1.39 1.39 0 001.07-.4c.24-.27.36-.71.36 0V7.14c0-1.87-.11-2.29-.33-2.6a1 1 0 00-.88-.47h-.22v-.45h13.83c0 .46 0 1 .05 1.47s0 1 .07 1.46h-.38l-.12-.4a3.59 3.59 0 00-1.5-1.59A4.43 4.43 0 0066.21 4h-6.77v8.57h6a4.79 4.79 0 001.83-.32 1.55 1.55 0 001-.87l.09-.21h.38v3.38h-.38l-.09-.24a2 2 0 00-1-1 4 4 0 00-1.8-.38h-6v9.43h7a4.93 4.93 0 002.33-.58 4.56 4.56 0 001.75-1.59l.29-.38h.35c-.19.77-.34 1.44-.45 1.98zm-48.82 1H18.1v-.45a1.69 1.69 0 001.12-.34 3.23 3.23 0 00.78-1.23l7-17.06h.43l7.29 16.94a3.94 3.94 0 00.83 1.25 1.59 1.59 0 001.13.44v.45h-4.46v-.45h.29a1.06 1.06 0 00.74-.24.87.87 0 00.26-.67 2.05 2.05 0 00-.19-.81L26.78 5.41 20.7 20.24a2.44 2.44 0 00-.21 1 1 1 0 001.14 1.15h.29z"/><path d="M22.31 15.76h9.62v.37h-9.62z"/></g></g></svg>