<?xml version="1.0" encoding="UTF-8"?> <svg xmlns="http://www.w3.org/2000/svg" viewBox="0 0 423.98 276.69"><g fill="#a3790c"><path d="m180.51 18c-6 13.36-10.83 31.36-12.68 37.62-6.38 21.45-12.46 43.76-28.3 60.27-1.42 1.58-2.45 3.09-4 3.37a12.69 12.69 0 0 0 -1.8.21c-.51.1-1.41-.52-.7-.92 1.4-.26 3.43-2.09 4.43-3.07 15-15.68 21.49-42.55 28.94-66.7 2.67-8.91 5.93-20.31 10.08-29.76-8.24 1.67-24.76 2.66-38 3-10.47.25-21.12.27-29 1.74-15.12 2.83-27 10.32-28.23 25.54-.08.28-.09 1.6-1.11 1.79-.38.07-.68-.14-.63-.54-.19-15.09 12-24.35 30.19-27.75 6.22-1.16 15.38-1.43 26.13-1.6 11.69-.08 29.52-1.06 41-3.07 4.12-8.92 9-16 15.2-17.18a3 3 0 0 1 3.77 2.58c.86 4.47-5.8 11.47-15.29 14.47zm.5-.88c6.92-2.35 15-8.46 14-13.67a1.41 1.41 0 0 0 -1.81-1.24c-4.31.79-8.55 6.95-12.2 14.86z"></path><path d="m198 50.85c-4.72 8.51-15.45 27.75-15.83 29.26 9.36-10.43 22.67-25 27.12-25.85a1.8 1.8 0 0 1 2.39 1.52c.86 4.58-11.25 20-9.82 27.62.21 1.14.93 2.19 2.33 1.93 4.19-.79 13.4-11.32 24.84-28.19l.45.31c-11.89 17.35-20.64 27.55-25.09 28.36-2.28.43-3.66-1.28-4-3.32-1.82-9.49 10.08-24.64 9.61-27.06-.07-.38-.63-.54-.88-.49-3.82.72-15.84 13.75-21.73 20.24-4.68 5.22-6.07 6.93-8.09 8.75l-.69-.13-1-.6c.19-.43 15.39-28.79 15.39-28.79 9.38-17.27 26.13-51.41 41-54.23 3.05-.57 4.64.19 5.06 2.47 1.12 5.97-19.8 29.09-41.06 48.2zm.76-1.59c17.03-15.68 40.6-40.09 39.44-46.26a2.08 2.08 0 0 0 -2.69-1.74c-5.97 1.07-17.51 9.93-36.77 48z"></path><path d="m254.11 52.83c-11.06 16.8-21.29 24-25.1 24.69-2.29.43-3.66-1.28-4-3.32-1-5.33.62-10.76 2.78-15.38 3.38-7.21 7.35-10.58 9.51-11a2 2 0 0 1 2.29 1.67c.43 2.29-2.23 6.34-8.39 7.88-3.94 7-5.58 14.46-5 17.26.31 1.65 1.38 2.5 2.91 2.21 3.43-.64 13.56-7.66 24.64-24.33zm-15-3.1c-.12-.63-.45-1-.83-.89-1.78.33-5 4.75-6.9 8.13 6.53-2.15 7.95-5.84 7.69-7.24z"></path><path d="m95 138a26.54 26.54 0 0 0 .49 3.33c1.33 7.11 4.92 10.12 8.51 12.48.31.2.94.08 1 .59s-.27 1.37-.91 1.49-1.67-.48-3.32-.17c-7.24 1.35-55 25.69-48.58 60.12 2.42 13 11.44 15.48 20.85 13.72 28-5.23 61.26-44.35 77.17-67.58.62-.9 1.17-.74.45.31-13.48 20-48.36 62.71-77.58 68.18-12.08 2.25-22.64-3.53-25.08-16.37-4-21.72 17.68-48.4 51.29-60.62-5.79-3.48-7.82-10.89-8.17-13.48-13.34 6.71-78.25 41.48-89.56 80.81 0 0-.56 2.61-1.2 2.73a.4.4 0 0 1 -.35-.47c9.19-40.07 75.48-75.91 90.99-83.81-1.63-12.19 8.82-20.33 14.66-21.42 3.81-.71 6.38.38 7 3.94 1.22 6.35-11.74 12.99-17.66 16.22zm0-.66c13.68-7 17.72-11.47 17-15.41-.41-2.16-2.27-3-4.31-2.61-7.43 1.37-12.9 8.68-12.69 18.01z"></path><path d="m158 154.34c-2.67.5-4 3.12-8.36 9.45l-.45-.31c3-4.37 5.37-9.29 9.05-10 2.16-.4 3.77.48 4.27 3.15a29.76 29.76 0 0 1 .17 7.2c4.85-5 9.5-9.67 13.13-12.72.11-.15.19-.43.44-.47s.71.26.48.43c-3.59 3.31-10.47 10.12-14 13.67a49.87 49.87 0 0 0 .57 11.47c.48 2.54 1.79 3.22 3.19 3 5.51-1.07 11.51-10.61 20.81-24.21l.45.31c-8.08 11.64-14.84 23.29-21.7 24.58-1.91.35-4.69-.44-5.42-4.38a55.06 55.06 0 0 1 -.72-8c-15.76 16.23-15.6 15-16.49 15.18a1.5 1.5 0 0 1 -.66 0c0-.13 3.23-2.45 4.92-3.95 3.72-3.32 8-7.68 12.22-12 0-4.21.35-7.95-.17-10.75-.19-.99-.62-1.87-1.73-1.65z"></path><path d="m226.73 148.23c-7.34 10.71-13.32 17.35-22.09 19l-1 .19c5.31-4.67 8.13-11.38 7.27-15.95-.47-2.55-2.09-4.87-7.43-3.87a27.15 27.15 0 0 0 -6.83 2.85c2.63-5.62 3-9.11 6.38-11.58.46-.35 1.3-.77 1.28-.9s-.15-.1-.53 0a7.58 7.58 0 0 0 -3.94 2.84 87.33 87.33 0 0 0 -14 16.43l.45.32a87.3 87.3 0 0 1 12-14.61c-2.87 4.35-6 11.51-9.64 20.87-1.89-1-3.73-1.67-5.64-1.31a4.56 4.56 0 0 0 -3.72 5.43c.55 2.92 3.19 4.4 6.07 5-4.12 10.18-11.43 34.63-19.81 44.9a13.78 13.78 0 0 1 -.9 1.19c-1.39 1.64-14.5 12-16.23 13.23 16.27-8 29.84-26.64 39.76-59a18.61 18.61 0 0 0 4.28-.28 23.11 23.11 0 0 0 10.54-4.91l1.77-.34c8.39-1.57 14.75-7.62 22.45-19.19zm-41.35 24.31c-2.73-.54-5.22-1.92-5.75-4.71a4.4 4.4 0 0 1 3.41-5c1.78-.33 3.62.37 5.51 1.34-1.09 2.59-2.02 5.39-3.17 8.37zm6.69-.07a20.19 20.19 0 0 1 -3.75.31c.74-2.38 1.73-4.8 2.57-7.32a20.3 20.3 0 0 0 9.83 2.63 18.57 18.57 0 0 1 -8.65 4.38zm9.22-4.88a20 20 0 0 1 -10.21-2.59c1.81-5.08 3.85-10.32 5.39-14a23.55 23.55 0 0 1 7.09-2.91c1.65-.3 3.82.08 4.51 3.76.93 4.83-1.96 11.29-6.78 15.74z"></path><path d="m251.83 143.93c-11.06 16.79-21.29 24-25.1 24.68-2.29.43-3.66-1.28-4-3.32-1-5.33.61-10.76 2.77-15.38 3.39-7.21 7.36-10.58 9.52-11a2 2 0 0 1 2.29 1.67c.42 2.29-2.24 6.34-8.39 7.88-3.94 7.05-5.58 14.46-5.06 17.26.31 1.65 1.39 2.5 2.92 2.21 3.43-.64 13.55-7.66 24.64-24.34zm-15.05-3.11c-.12-.63-.44-1-.82-.89-1.78.33-5 4.75-6.9 8.12 6.57-2.15 7.94-5.83 7.72-7.23z"></path><path d="m255.55 161c.42 2.29 2.25 2.21 3.27 2 5.71-1.07 15.6-15 22.41-25l.45.31c-7.22 10.55-17 24.35-22.85 25.45-3.43.64-4.83-1.2-5.16-3-1.47-7.88 5.67-17.5 7.19-19.89a6.9 6.9 0 0 1 -5.55-2.25c-1.32 2.09-2.86 4.35-4.52 6.76l-.45-.31c1.55-2.26 3.2-4.67 4.62-6.91a8.55 8.55 0 0 1 -1.45-3.54c-.57-3 .66-6.31 3.2-6.78a1.94 1.94 0 0 1 2.44 1.78c.33 1.77-1.1 4.67-3.22 8.09 1.52 2.48 4.25 3 7.58 2.53-1.09 1.96-9.11 14.64-7.96 20.76zm0-23.8c1.89-3.25 3.22-6 3-7.4-.12-.63-.42-.84-.81-.77-1.27.24-3.38 3-2.86 5.8a7.63 7.63 0 0 0 .68 2.35z"></path><path d="m283.62 133.24a3.59 3.59 0 0 1 2.3-1.75c.64-.12.81.11.86.37.12.63-.52 1.41-.81 2s-9.49 17.43-8.68 21.75a2 2 0 0 0 2.43 1.78c5.85-1.1 15.65-14.77 21.33-23.06l.45.31c-8.11 12.17-16.6 22.3-21.55 23.23a2.94 2.94 0 0 1 -3.65-2.6c-.57-3 .15-8.32 4-15.88.7-1.39 2.83-5.27 3.32-6.15zm5.9-11.36c1-.19 1.72.07 1.89 1a2.52 2.52 0 0 1 -.35 1.64c-.51.1-.59.38-1.23.49s-1.2-.82-1.32-1.46c-.22-1.18.12-1.55 1.01-1.67z"></path><path d="m326.15 130c-11.06 16.8-21.29 24-25.1 24.69-2.29.43-3.66-1.29-4-3.32-1-5.34.62-10.77 2.78-15.38 3.38-7.21 7.35-10.58 9.51-11a2 2 0 0 1 2.29 1.68c.43 2.29-2.23 6.34-8.39 7.88-3.94 7.05-5.58 14.46-5.05 17.26.3 1.65 1.38 2.5 2.91 2.21 3.43-.64 13.56-7.67 24.64-24.34zm-15-3.1c-.11-.63-.44-1-.82-.9-1.78.34-5 4.76-6.9 8.13 6.57-2.13 7.94-5.82 7.67-7.22z"></path><path d="m325.12 131.52-.46-.31c4.55-6.64 7.57-11.54 10.62-12.11a2 2 0 0 1 2.57 1.75c.62 3.31-2 9.71-2.7 11.56 4.12-5.38 12.4-15.21 17.36-16.14 1.27-.24 2.2.51 2.51 2.16 1.33 7.11-10.52 22.48-9.29 29.09.22 1.14.8 1.43 1.69 1.26 6.35-1.19 16.86-14.59 25.92-28l.46.31c-8.58 12.52-19.53 27.07-26.26 28.33-1.78.33-3-.49-3.39-2.65-1.62-8.65 10.57-25 9.88-28.68-.14-.77-.54-1.48-1.55-1.29-4.07.76-13.27 10.64-17.89 17.55-.52.76-4.63 9.68-5.59 10.91-.39.73-.53 2.07-1.93 2.33-.38.07-.76.15-.9-.62a2.73 2.73 0 0 1 .24-1.49s11.17-21.16 10.43-25.1c-.19-1-.95-.87-1.46-.77-2.67.49-5.93 5.58-10.26 11.91z"></path><path d="m385.48 117.46a3.89 3.89 0 0 0 0-1.85c-.27-1.4-1.28-3.31-2.81-3-3.81.72-12.43 19.3-11.48 24.38.29 1.52 1.32 2.12 3.23 1.76 7.75-1.45 18.39-13.43 24.41-22.72l.45.31c-8.68 13.33-18.9 21.95-24.87 23.07-3 .57-4.66-1-5.13-3.51-1.31-7 6.77-22.84 12.11-23.83 3.17-.6 4.26 1.7 4.59 3.48a7.59 7.59 0 0 1 .11 2c.06.71-.9.45-.61-.09z"></path><path d="m424 111.7c-11.06 16.8-21.29 24-25.1 24.69-2.29.43-3.66-1.29-4-3.32-1-5.34.62-10.77 2.78-15.38 3.38-7.21 7.35-10.58 9.51-11a2 2 0 0 1 2.29 1.68c.43 2.28-2.23 6.33-8.39 7.88-3.94 7-5.58 14.46-5 17.25.31 1.65 1.38 2.51 2.91 2.22 3.43-.64 13.56-7.67 24.64-24.34zm-15-3.1c-.12-.64-.45-1-.83-.9-1.78.33-5 4.76-6.9 8.13 6.51-2.15 7.93-5.83 7.67-7.23z"></path></g><path d="m180.41 190.18s-8.52 33-40.55 46.34-48.39-5.45-24.2-18.06 97.12-1.7 149.25 2 153 5.11 151.29-31-109.72-19.13-176.2 33.09c-60.42 47.48 4.09 53.84 4.09 53.84" fill="none" stroke="#a3790c" stroke-miterlimit="10" stroke-width=".61"></path></svg> 