<svg xmlns="http://www.w3.org/2000/svg" version="1.1" xmlns:xlink="http://www.w3.org/1999/xlink" width="512" height="512" x="0" y="0" viewBox="0 0 480 480" style="enable-background:new 0 0 512 512" xml:space="preserve" class=""><g><path d="M240 0a8 8 0 0 0-8 8v48a8 8 0 0 0 16 0V8a8 8 0 0 0-8-8zM208.984 18.016l-1.392-7.88a8.001 8.001 0 1 0-15.76 2.776l1.392 7.88a8 8 0 0 0 9.264 6.488h.001a8 8 0 0 0 6.495-9.264zM163.384 37.512zM170.904 26.776l-2.736-7.52a8 8 0 0 0-10.451-4.873 8 8 0 0 0-4.581 10.345l2.728 7.512a8 8 0 0 0 10.258 4.79 8 8 0 0 0 4.782-10.254zM102.128 63.264l-5.144-6.128a8 8 0 0 0-11.032-.967 8 8 0 0 0-1.224 11.247l5.144 6.128A8 8 0 0 0 96 76.408a8 8 0 0 0 6.128-13.144zM73.544 89.872l-6.128-5.144a8 8 0 0 0-10.28 12.256l6.128 5.144A8 8 0 0 0 68.4 104a8 8 0 0 0 5.144-14.128zM32.24 155.864l-7.512-2.728a8 8 0 0 0-10.451 4.873 8 8 0 0 0 4.979 10.159l7.52 2.736a8 8 0 1 0 5.464-15.04zM20.792 193.224l-7.88-1.392a8.001 8.001 0 1 0-2.776 15.76l7.88 1.392c.46.079.925.119 1.392.12a8 8 0 0 0 1.384-15.88zM27.284 277.508a8.001 8.001 0 0 0-9.268-6.492l-7.88 1.392a8.001 8.001 0 0 0 1.376 15.88 8.419 8.419 0 0 0 1.4-.12l7.88-1.392a8.001 8.001 0 0 0 6.492-9.268zM37.028 313.884a8.001 8.001 0 0 0-10.252-4.788l-7.52 2.736a8.001 8.001 0 0 0 2.736 15.52 8.01 8.01 0 0 0 2.736-.488l7.512-2.728a8.001 8.001 0 0 0 4.788-10.252zM74.553 378.608a8 8 0 0 0-11.289-.753L57.136 383a8.001 8.001 0 0 0 5.144 14.128 8 8 0 0 0 5.136-1.872l6.128-5.144a8 8 0 0 0 1.009-11.504zM101.135 405.232a8 8 0 0 0-11.247 1.224l-5.144 6.128a8 8 0 0 0 6.128 13.136A8 8 0 0 0 97 422.864l5.144-6.128a8 8 0 0 0-1.009-11.504zM166.116 442.972a8.001 8.001 0 0 0-10.252 4.788l-2.728 7.512a8 8 0 0 0 7.52 10.736 8 8 0 0 0 7.512-5.264l2.736-7.52a8.001 8.001 0 0 0-4.788-10.252zM202.492 452.716a8.001 8.001 0 0 0-9.268 6.492l-1.392 7.88v.001a8 8 0 0 0 6.496 9.263c.459.086.925.128 1.392.128a8 8 0 0 0 7.872-6.616l1.392-7.88a8.001 8.001 0 0 0-6.492-9.268zM288.168 467.088l-1.392-7.88a8.001 8.001 0 1 0-15.76 2.776l1.392 7.88a8 8 0 0 0 7.872 6.616c.467 0 .933-.042 1.392-.128h.001a8 8 0 0 0 6.495-9.264zM326.864 455.272l-2.728-7.512a8.001 8.001 0 0 0-15.04 5.464l2.736 7.52a8 8 0 0 0 7.512 5.264 8 8 0 0 0 7.52-10.736zM395.256 412.584l-5.144-6.128a8 8 0 1 0-12.256 10.28l5.144 6.128a7.944 7.944 0 0 0 6.128 2.856 8 8 0 0 0 6.128-13.136zM422.864 383l-6.128-5.144a8 8 0 0 0-11.503 1.009 8 8 0 0 0 1.224 11.247l6.128 5.144a8 8 0 0 0 5.136 1.872A8 8 0 0 0 422.864 383zM460.744 311.832l-7.52-2.736a8.001 8.001 0 0 0-5.464 15.04l7.512 2.728a8.006 8.006 0 0 0 2.736.488 8 8 0 0 0 2.736-15.52zM469.864 272.408l-7.88-1.392a8.001 8.001 0 1 0-2.776 15.76l7.88 1.392c.462.079.931.119 1.4.12a8.001 8.001 0 0 0 1.376-15.88zM476.356 198.324a8.001 8.001 0 0 0-9.268-6.492l-7.88 1.392a8 8 0 0 0 1.384 15.88 8.323 8.323 0 0 0 1.392-.12l7.88-1.392a8.001 8.001 0 0 0 6.492-9.268zM465.617 157.717a8 8 0 0 0-10.345-4.581l-7.512 2.728a8 8 0 1 0 5.464 15.04l7.52-2.736a8.001 8.001 0 0 0 4.873-10.451zM423.831 85.952a8 8 0 0 0-11.247-1.224l-6.128 5.144A8.001 8.001 0 0 0 411.6 104a8 8 0 0 0 5.136-1.872l6.128-5.144a8 8 0 0 0 .967-11.032zM394.305 56.384a8 8 0 0 0-11.289.752l-5.144 6.128A8 8 0 0 0 384 76.408a8 8 0 0 0 6.128-2.864l5.144-6.128a8 8 0 0 0-.967-11.032zM321.992 14.278a7.999 7.999 0 0 0-10.159 4.978l-2.736 7.52a8 8 0 1 0 15.04 5.464l2.728-7.512a8 8 0 0 0-4.873-10.45zM281.676 3.644a8.001 8.001 0 0 0-9.268 6.492l-1.392 7.88v.001a8 8 0 0 0 7.888 9.383 8 8 0 0 0 7.872-6.608l1.392-7.88a8.001 8.001 0 0 0-6.492-9.268zM146.92 62.792l-16-27.712a8 8 0 0 0-13.856 8l16 27.712a7.998 7.998 0 0 0 10.928 2.928 8 8 0 0 0 2.928-10.928zM70.784 133.072l-27.712-16a8 8 0 0 0-8 13.856l27.712 16A8.002 8.002 0 0 0 73.712 144a8 8 0 0 0-2.928-10.928zM73.748 335.926a8 8 0 0 0-10.948-2.854l-27.712 16a8 8 0 0 0 8 13.856l27.712-16 .093-.054a8 8 0 0 0 2.855-10.948zM143.989 406.208a8 8 0 0 0-10.909 3l-16 27.712a8 8 0 1 0 13.856 8l16-27.712.053-.092a8 8 0 0 0-3-10.908zM362.92 436.92l-16-27.712a8 8 0 0 0-13.856 8l16 27.712a7.998 7.998 0 0 0 10.928 2.928 8 8 0 0 0 2.928-10.928zM444.912 349.072l-27.712-16a8 8 0 0 0-8 13.856l27.712 16a8 8 0 0 0 8-13.856zM447.837 120.072a8 8 0 0 0-10.909-3l-27.712 16a8 8 0 0 0 8 13.856l27.712-16a8 8 0 0 0 2.909-10.856zM360.028 32.226a8 8 0 0 0-10.948 2.854l-16 27.712a8 8 0 1 0 13.856 8l16-27.712a7.999 7.999 0 0 0-2.908-10.854zM56 232H8a8 8 0 0 0 0 16h48a8 8 0 0 0 0-16zM240 416a8 8 0 0 0-8 8v48a8 8 0 0 0 16 0v-48a8 8 0 0 0-8-8zM472 232h-56a8 8 0 0 0 0 16h56a8 8 0 0 0 0-16zM353.832 126.568a8 8 0 0 0-11.312 0l-86.28 86.28a31.454 31.454 0 0 0-16-4.152 31.815 31.815 0 0 0-15.032 4.176l-41.048-41.048a8.016 8.016 0 1 0-11.36 11.312l40.72 40.72c-9.41 14.991-4.885 34.772 10.106 44.182 14.991 9.41 34.772 4.885 44.182-10.107a32.046 32.046 0 0 0 0-34.075l86.024-85.976a8 8 0 0 0 0-11.312zM252.683 251.821c-6.02 6.468-16.145 6.831-22.613.811a16.85 16.85 0 0 1-.47-.456c-6.341-6.154-6.493-16.284-.339-22.625a16 16 0 0 1 11.227-4.855 15.505 15.505 0 0 1 11.384 4.512c6.468 6.02 6.831 16.145.811 22.613z" fill="#ffffff" opacity="1" data-original="#000000"></path></g></svg>